<svg id="_06-SINGLE-WHITE" data-name="06-SINGLE-WHITE" xmlns="http://www.w3.org/2000/svg" viewBox="0 0 36.63 22.9"><title>behance</title><g id="Behance"><path d="M622.42,807.58a5.42,5.42,0,0,0,1.73-1.27,4.93,4.93,0,0,0,1-3.29,5.63,5.63,0,0,0-1-3.41q-1.73-2.32-5.87-2.38H607.35v22.33h10.2a15.92,15.92,0,0,0,3.2-.3,6.28,6.28,0,0,0,2.56-1.12,6.2,6.2,0,0,0,1.6-1.76,6.45,6.45,0,0,0,1-3.56,5.86,5.86,0,0,0-.88-3.27A5.08,5.08,0,0,0,622.42,807.58Zm-10.56-6.47h4.93a8.68,8.68,0,0,1,2.68.35,2,2,0,0,1,1.21,2.07,2.1,2.1,0,0,1-.92,2,4.61,4.61,0,0,1-2.4.55h-5.51v-4.93Zm7.79,14.19a5.43,5.43,0,0,1-2.29.39h-5.5v-6h5.57a5.79,5.79,0,0,1,2.26.38,2.39,2.39,0,0,1,1.44,2.4A2.81,2.81,0,0,1,619.65,815.3Z" transform="translate(-607.35 -797.23)"/><rect x="23.41" y="1.04" width="9.7" height="2.78"/><path d="M642.5,805.83a6.74,6.74,0,0,0-2.89-2.44,9.63,9.63,0,0,0-3.94-.78,8.15,8.15,0,0,0-6,2.29q-2.3,2.29-2.3,6.58,0,4.58,2.56,6.61a9.18,9.18,0,0,0,5.9,2,8.2,8.2,0,0,0,6.3-2.41,5.41,5.41,0,0,0,1.62-3h-4.47a3.6,3.6,0,0,1-.9,1.14,3.74,3.74,0,0,1-2.43.76,4.49,4.49,0,0,1-2.41-.62,4,4,0,0,1-1.75-3.48H644a21,21,0,0,0-.15-3.28A8,8,0,0,0,642.5,805.83Zm-10.61,3.84a4.47,4.47,0,0,1,1.17-2.56,3.5,3.5,0,0,1,2.61-.94,3.89,3.89,0,0,1,2.6.89,3.61,3.61,0,0,1,1.17,2.61h-7.54Z" transform="translate(-607.35 -797.23)"/></g></svg>