<?xml version="1.0" encoding="utf-8"?>
<!-- Generator: Adobe Illustrator 19.2.1, SVG Export Plug-In . SVG Version: 6.00 Build 0)  -->
<svg version="1.1" id="_06-SINGLE-WHITE" xmlns="http://www.w3.org/2000/svg" xmlns:xlink="http://www.w3.org/1999/xlink" x="0px"
	 y="0px" viewBox="0 0 31.3 31.3" style="enable-background:new 0 0 31.3 31.3;" xml:space="preserve">
<title>dribbble</title>
<path d="M21.1,17.4c1.2,3.4,2.2,7,2.8,10.6c3.4-2.3,5.7-5.9,6.3-9.9C27.3,17.1,24.1,16.9,21.1,17.4z"/>
<path d="M19.8,14.2l0.3,0.8c3.4-0.4,6.9-0.2,10.3,0.5c0-3.4-1.2-6.6-3.4-9.3c0,0-2.4,3.5-8.2,5.9C19.2,12.8,19.5,13.5,19.8,14.2z"/>
<path d="M25.4,4.5c-3.6-3.2-8.5-4.4-13.2-3.3c2,2.7,3.9,5.6,5.5,8.6C23.3,7.8,25.4,4.6,25.4,4.5z"/>
<path d="M18.2,18.1c-8.8,3.1-11.6,9.2-11.6,9.2c4.2,3.3,9.9,4.1,14.9,2C20.7,25.4,19.7,21.7,18.2,18.1L18.2,18.1z"/>
<path d="M4.7,25.6c0,0,4.1-7.2,12-9.8l0.6-0.2c-0.4-0.8-0.8-1.7-1.2-2.5C11.1,14.5,6,15.2,0.9,15.2c0,0.2,0,0.3,0,0.5
	C0.9,19.3,2.2,22.8,4.7,25.6L4.7,25.6L4.7,25.6z"/>
<path d="M14.8,10.8C13.2,7.9,11.3,5,9.3,2.3c-4.2,2-7.2,5.8-8.2,10.3C5.8,12.6,10.4,12,14.8,10.8z"/>
</svg>
