<?xml version="1.0" encoding="utf-8"?>
<!-- Generator: Adobe Illustrator 19.2.1, SVG Export Plug-In . SVG Version: 6.00 Build 0)  -->
<svg version="1.1" id="_06-SINGLE-WHITE" xmlns="http://www.w3.org/2000/svg" xmlns:xlink="http://www.w3.org/1999/xlink" x="0px"
	 y="0px" viewBox="0 0 36.7 36.7" style="enable-background:new 0 0 36.7 36.7;" xml:space="preserve">
<title>instagram</title>
<path id="Instagram" d="M31.8,0.6h-27c-2.3,0-4.2,1.9-4.2,4.2c0,0,0,0,0,0v27.1c0,2.3,1.9,4.2,4.2,4.2c0,0,0,0,0,0h27
	c2.3,0,4.2-1.9,4.2-4.2c0,0,0,0,0,0V4.8C36.1,2.5,34.2,0.6,31.8,0.6C31.9,0.6,31.9,0.6,31.8,0.6z M26,6.1C26,5.5,26.5,5,27.2,5h0
	h3.3c0.6,0,1.1,0.5,1.1,1.1v3.3c0,0.6-0.5,1.1-1.1,1.1h0h-3.3c-0.6,0-1.1-0.5-1.1-1.1v0L26,6.1L26,6.1z M18.3,11.6
	c3.7,0,6.8,3,6.8,6.8s-3,6.8-6.8,6.8s-6.8-3-6.8-6.8C11.5,14.6,14.6,11.6,18.3,11.6C18.3,11.6,18.3,11.6,18.3,11.6L18.3,11.6z
	 M32.8,31.6c0,0.6-0.5,1.1-1.1,1.1l0,0H5c-0.6,0-1.1-0.5-1.1-1.1v0V15h4.4c-0.5,1-0.8,2.2-0.8,3.4c0,6,4.8,10.8,10.8,10.8
	c6,0,10.8-4.8,10.8-10.8l0,0c0.1-1.2-0.2-2.4-0.9-3.4h4.4V31.6z"/>
</svg>
