<svg id="_06-SINGLE-WHITE" data-name="06-SINGLE-WHITE" xmlns="http://www.w3.org/2000/svg" viewBox="0 0 36.89 33.54"><title>linkedin</title><g id="LinkedIn"><rect x="0.93" y="10.75" width="7.19" height="22.78"/><path d="M764.11,802.65c-4.12,0-6.7,2.23-7.18,3.79v-3.58h-8.08c0.1,1.9,0,22.78,0,22.78h8.08V813.32a5.19,5.19,0,0,1,.18-1.86,4.11,4.11,0,0,1,3.89-2.79c2.8,0,4.08,2.11,4.08,5.19v11.79h8.15V813C773.23,805.92,769.22,802.65,764.11,802.65Z" transform="translate(-736.34 -792.11)"/><path d="M740.74,792.11c-2.65,0-4.39,1.71-4.39,4a4,4,0,0,0,4.29,3.95h0.05c2.7,0,4.39-1.75,4.39-4A4,4,0,0,0,740.74,792.11Z" transform="translate(-736.34 -792.11)"/></g></svg>