<svg id="_06-SINGLE-WHITE" data-name="06-SINGLE-WHITE" xmlns="http://www.w3.org/2000/svg" viewBox="0 0 37.45 31.21"><title>twitter</title><path id="Twitter" d="M900.36,793.37a15.13,15.13,0,0,1-4.88,1.91,7.58,7.58,0,0,0-5.61-2.49,7.78,7.78,0,0,0-7.68,7.88,8,8,0,0,0,.2,1.79,21.63,21.63,0,0,1-15.84-8.24,8,8,0,0,0-1,4,7.93,7.93,0,0,0,3.42,6.56,7.54,7.54,0,0,1-3.48-1v0.1a7.83,7.83,0,0,0,6.17,7.73,7.33,7.33,0,0,1-2,.28,7.47,7.47,0,0,1-1.45-.14,7.71,7.71,0,0,0,7.18,5.47,15.17,15.17,0,0,1-9.54,3.37,15.38,15.38,0,0,1-1.83-.11A21.39,21.39,0,0,0,875.71,824c14.14,0,21.86-12,21.86-22.42,0-.34,0-0.69,0-1a15.77,15.77,0,0,0,3.83-4.08,15,15,0,0,1-4.41,1.24A7.86,7.86,0,0,0,900.36,793.37Z" transform="translate(-863.94 -792.79)"/></svg>